<?xml version="1.0" encoding="UTF-8" standalone="no"?>
<!DOCTYPE svg PUBLIC "-//W3C//DTD SVG 1.1//EN"
 "http://www.w3.org/Graphics/SVG/1.1/DTD/svg11.dtd">
<!-- Generated by graphviz version 2.38.0 (20140413.2041)
 -->
<!-- Title: %3 Pages: 1 -->
<svg width="537pt" height="260pt"
 viewBox="0.00 0.00 537.25 260.00" xmlns="http://www.w3.org/2000/svg" xmlns:xlink="http://www.w3.org/1999/xlink">
<g id="graph0" class="graph" transform="scale(1 1) rotate(0) translate(4 256)">
<title>%3</title>
<polygon fill="white" stroke="none" points="-4,4 -4,-256 533.247,-256 533.247,4 -4,4"/>
<!-- html -->
<g id="node1" class="node"><title>html</title>
<ellipse fill="none" stroke="black" cx="192" cy="-234" rx="27.0966" ry="18"/>
<text text-anchor="middle" x="192" y="-230.3" font-family="Times,serif" font-size="14.00">html</text>
</g>
<!-- head -->
<g id="node2" class="node"><title>head</title>
<ellipse fill="none" stroke="black" cx="101" cy="-162" rx="27.0966" ry="18"/>
<text text-anchor="middle" x="101" y="-158.3" font-family="Times,serif" font-size="14.00">head</text>
</g>
<!-- html&#45;&gt;head -->
<g id="edge1" class="edge"><title>html&#45;&gt;head</title>
<path fill="none" stroke="black" d="M174.884,-219.834C161.156,-209.274 141.69,-194.3 126.185,-182.373"/>
<polygon fill="black" stroke="black" points="128.1,-179.43 118.04,-176.107 123.832,-184.979 128.1,-179.43"/>
</g>
<!-- body -->
<g id="node3" class="node"><title>body</title>
<ellipse fill="none" stroke="black" cx="283" cy="-162" rx="28.6953" ry="18"/>
<text text-anchor="middle" x="283" y="-158.3" font-family="Times,serif" font-size="14.00">body</text>
</g>
<!-- html&#45;&gt;body -->
<g id="edge2" class="edge"><title>html&#45;&gt;body</title>
<path fill="none" stroke="black" d="M209.116,-219.834C222.757,-209.341 242.064,-194.489 257.52,-182.6"/>
<polygon fill="black" stroke="black" points="259.859,-185.217 265.651,-176.345 255.591,-179.668 259.859,-185.217"/>
</g>
<!-- title -->
<g id="node4" class="node"><title>title</title>
<ellipse fill="none" stroke="black" cx="27" cy="-90" rx="27" ry="18"/>
<text text-anchor="middle" x="27" y="-86.3" font-family="Times,serif" font-size="14.00">title</text>
</g>
<!-- head&#45;&gt;title -->
<g id="edge3" class="edge"><title>head&#45;&gt;title</title>
<path fill="none" stroke="black" d="M86.025,-146.834C75.4933,-136.872 61.2183,-123.369 49.345,-112.137"/>
<polygon fill="black" stroke="black" points="51.6227,-109.474 41.9527,-105.144 46.8122,-114.559 51.6227,-109.474"/>
</g>
<!-- meta -->
<g id="node5" class="node"><title>meta</title>
<ellipse fill="none" stroke="black" cx="101" cy="-90" rx="28.6953" ry="18"/>
<text text-anchor="middle" x="101" y="-86.3" font-family="Times,serif" font-size="14.00">meta</text>
</g>
<!-- head&#45;&gt;meta -->
<g id="edge4" class="edge"><title>head&#45;&gt;meta</title>
<path fill="none" stroke="black" d="M101,-143.697C101,-135.983 101,-126.712 101,-118.112"/>
<polygon fill="black" stroke="black" points="104.5,-118.104 101,-108.104 97.5001,-118.104 104.5,-118.104"/>
</g>
<!-- p -->
<g id="node6" class="node"><title>p</title>
<ellipse fill="none" stroke="black" cx="175" cy="-90" rx="27" ry="18"/>
<text text-anchor="middle" x="175" y="-86.3" font-family="Times,serif" font-size="14.00">p</text>
</g>
<!-- body&#45;&gt;p -->
<g id="edge5" class="edge"><title>body&#45;&gt;p</title>
<path fill="none" stroke="black" d="M263.692,-148.485C246.617,-137.418 221.516,-121.149 202.371,-108.741"/>
<polygon fill="black" stroke="black" points="204.075,-105.674 193.779,-103.172 200.267,-111.548 204.075,-105.674"/>
</g>
<!-- a -->
<g id="node7" class="node"><title>a</title>
<ellipse fill="none" stroke="black" cx="247" cy="-90" rx="27" ry="18"/>
<text text-anchor="middle" x="247" y="-86.3" font-family="Times,serif" font-size="14.00">a</text>
</g>
<!-- body&#45;&gt;a -->
<g id="edge6" class="edge"><title>body&#45;&gt;a</title>
<path fill="none" stroke="black" d="M274.65,-144.765C270.288,-136.283 264.853,-125.714 259.959,-116.197"/>
<polygon fill="black" stroke="black" points="262.99,-114.439 255.304,-107.147 256.765,-117.641 262.99,-114.439"/>
</g>
<!-- i -->
<g id="node8" class="node"><title>i</title>
<ellipse fill="none" stroke="black" cx="319" cy="-90" rx="27" ry="18"/>
<text text-anchor="middle" x="319" y="-86.3" font-family="Times,serif" font-size="14.00">i</text>
</g>
<!-- body&#45;&gt;i -->
<g id="edge7" class="edge"><title>body&#45;&gt;i</title>
<path fill="none" stroke="black" d="M291.35,-144.765C295.712,-136.283 301.147,-125.714 306.041,-116.197"/>
<polygon fill="black" stroke="black" points="309.235,-117.641 310.696,-107.147 303.01,-114.439 309.235,-117.641"/>
</g>
<!-- b -->
<g id="node9" class="node"><title>b</title>
<ellipse fill="none" stroke="black" cx="391" cy="-90" rx="27" ry="18"/>
<text text-anchor="middle" x="391" y="-86.3" font-family="Times,serif" font-size="14.00">b</text>
</g>
<!-- body&#45;&gt;b -->
<g id="edge8" class="edge"><title>body&#45;&gt;b</title>
<path fill="none" stroke="black" d="M302.308,-148.485C319.383,-137.418 344.484,-121.149 363.629,-108.741"/>
<polygon fill="black" stroke="black" points="365.733,-111.548 372.221,-103.172 361.925,-105.674 365.733,-111.548"/>
</g>
<!-- img -->
<g id="node10" class="node"><title>img</title>
<ellipse fill="none" stroke="black" cx="463" cy="-90" rx="27" ry="18"/>
<text text-anchor="middle" x="463" y="-86.3" font-family="Times,serif" font-size="14.00">img</text>
</g>
<!-- body&#45;&gt;img -->
<g id="edge9" class="edge"><title>body&#45;&gt;img</title>
<path fill="none" stroke="black" d="M307.717,-152.651C336.608,-142.72 385.725,-125.301 427,-108 428.817,-107.238 430.675,-106.436 432.543,-105.611"/>
<polygon fill="black" stroke="black" points="434.172,-108.715 441.82,-101.383 431.269,-102.345 434.172,-108.715"/>
</g>
<!-- _src -->
<g id="node11" class="node"><title>_src</title>
<ellipse fill="none" stroke="black" cx="426" cy="-18" rx="27" ry="18"/>
<text text-anchor="middle" x="426" y="-14.3" font-family="Times,serif" font-size="14.00">_src</text>
</g>
<!-- img&#45;&gt;_src -->
<g id="edge10" class="edge"><title>img&#45;&gt;_src</title>
<path fill="none" stroke="black" d="M454.418,-72.7646C449.935,-64.2831 444.349,-53.7144 439.319,-44.1974"/>
<polygon fill="black" stroke="black" points="442.302,-42.3527 434.535,-35.1473 436.114,-45.6239 442.302,-42.3527"/>
</g>
<!-- _img -->
<g id="node12" class="node"><title>_img</title>
<ellipse fill="none" stroke="black" cx="500" cy="-18" rx="29.4969" ry="18"/>
<text text-anchor="middle" x="500" y="-14.3" font-family="Times,serif" font-size="14.00">_img</text>
</g>
<!-- img&#45;&gt;_img -->
<g id="edge11" class="edge"><title>img&#45;&gt;_img</title>
<path fill="none" stroke="black" d="M471.582,-72.7646C476.001,-64.4043 481.492,-54.0159 486.465,-44.6059"/>
<polygon fill="black" stroke="black" points="489.629,-46.11 491.208,-35.6334 483.441,-42.8388 489.629,-46.11"/>
</g>
</g>
</svg>
